<svg width="20" height="20" viewBox="0 0 20 20" fill="none" xmlns="http://www.w3.org/2000/svg">
<path d="M12.0831 11.25C12.0831 12.4008 11.1506 13.3333 9.99972 13.3333C8.84889 13.3333 7.91639 12.4008 7.91639 11.25C7.91639 10.0992 8.84889 9.16667 9.99972 9.16667C11.1506 9.16667 12.0831 10.0992 12.0831 11.25ZM18.5281 9.435C18.2172 9.0975 17.6889 9.07583 17.3506 9.3875L12.6531 13.7242C12.3439 14.0092 11.9414 14.1667 11.5222 14.1667H8.47722C8.05722 14.1667 7.65555 14.01 7.34722 13.725L2.64889 9.3875C2.31139 9.07583 1.78305 9.09667 1.47139 9.435C1.15889 9.77333 1.17972 10.3008 1.51805 10.6125L6.21722 14.95C6.35722 15.0792 6.50972 15.1908 6.66722 15.2933V19.1667C6.66722 19.6267 7.03972 20 7.50055 20C7.96139 20 8.33389 19.6267 8.33389 19.1667V15.82C8.38222 15.8225 8.42888 15.8333 8.47805 15.8333H11.5231C11.5714 15.8333 11.6189 15.8217 11.6672 15.82V19.1667C11.6672 19.6267 12.0397 20 12.5006 20C12.9614 20 13.3339 19.6267 13.3339 19.1667V15.2933C13.4914 15.1908 13.6439 15.0792 13.7847 14.95L18.4831 10.6125C18.8206 10.3 18.8422 9.77333 18.5297 9.435H18.5281ZM5.83305 2.5C5.83305 1.12167 6.95472 0 8.33305 0C8.97305 0 9.55722 0.241667 9.99972 0.638333C10.4422 0.241667 11.0264 0 11.6664 0C13.0447 0 14.1664 1.12167 14.1664 2.5C14.1664 4.72833 11.1481 7.0575 11.0197 7.15583C10.7197 7.38417 10.3597 7.49917 9.99972 7.49917C9.63972 7.49917 9.28055 7.385 8.98055 7.15667C8.85139 7.05833 5.83305 4.7275 5.83305 2.5ZM7.49972 2.5C7.49972 3.38333 8.79305 4.91667 9.99055 5.83083C11.2064 4.91667 12.4997 3.3825 12.4997 2.5C12.4997 2.04083 12.1264 1.66667 11.6664 1.66667C11.2064 1.66667 10.8331 2.04083 10.8331 2.5C10.8331 2.95917 10.4606 3.33333 9.99972 3.33333C9.53889 3.33333 9.16639 2.96 9.16639 2.5C9.16639 2.04 8.79305 1.66667 8.33305 1.66667C7.87305 1.66667 7.49972 2.04083 7.49972 2.5Z" fill="#0B0B07"/>
</svg>
