<svg width="20" height="20" viewBox="0 0 20 20" fill="none" xmlns="http://www.w3.org/2000/svg">
<g clip-path="url(#clip0_1432_2638)">
<path d="M18.5775 10.5833L17.6725 11.4883L14.685 8.5C14.2087 8.04568 13.5757 7.79222 12.9175 7.79222C12.2592 7.79222 11.6263 8.04568 11.15 8.5L11.0058 8.64416C10.8472 8.79586 10.6361 8.88052 10.4166 8.88052C10.1972 8.88052 9.98612 8.79586 9.82748 8.64416L5.59998 4.41166C5.5231 4.33207 5.43115 4.26859 5.32948 4.22491C5.22781 4.18124 5.11846 4.15825 5.00781 4.15729C4.89716 4.15633 4.78743 4.17741 4.68501 4.21931C4.5826 4.26121 4.48956 4.32309 4.41131 4.40134C4.33307 4.47958 4.27119 4.57262 4.22929 4.67504C4.18739 4.77745 4.16631 4.88718 4.16727 4.99783C4.16823 5.10848 4.19122 5.21783 4.23489 5.3195C4.27857 5.42117 4.34205 5.51313 4.42164 5.59L8.64831 9.8175C9.12452 10.272 9.75751 10.5256 10.4158 10.5256C11.0741 10.5256 11.7071 10.272 12.1833 9.8175L12.3275 9.67333C12.4861 9.52164 12.6972 9.43698 12.9166 9.43698C13.1361 9.43698 13.3472 9.52164 13.5058 9.67333L16.4941 12.6667L15.5891 13.5717C15.4726 13.6882 15.3933 13.8367 15.3612 13.9983C15.329 14.1599 15.3455 14.3275 15.4086 14.4797C15.4716 14.632 15.5784 14.7621 15.7154 14.8537C15.8524 14.9452 16.0135 14.9941 16.1783 14.9942H18.75C19.0815 14.9942 19.3994 14.8625 19.6339 14.628C19.8683 14.3936 20 14.0757 20 13.7442V11.1667C19.9988 11.0024 19.9491 10.8421 19.8571 10.706C19.7651 10.5699 19.6349 10.464 19.4828 10.4016C19.3308 10.3393 19.1638 10.3233 19.0027 10.3556C18.8416 10.3879 18.6937 10.4672 18.5775 10.5833Z" fill="#0B0B07"/>
<path d="M19.1667 18.3133H4.16667C3.50363 18.3133 2.86774 18.0499 2.3989 17.5811C1.93006 17.1123 1.66667 16.4764 1.66667 15.8133V0.833333C1.66667 0.61232 1.57887 0.400358 1.42259 0.244078C1.26631 0.0877974 1.05435 0 0.833333 0C0.61232 0 0.400358 0.0877974 0.244078 0.244078C0.0877974 0.400358 0 0.61232 0 0.833333L0 15.8133C0.00132321 16.918 0.440735 17.977 1.22185 18.7582C2.00296 19.5393 3.062 19.9787 4.16667 19.98H19.1667C19.3877 19.98 19.5996 19.8922 19.7559 19.7359C19.9122 19.5796 20 19.3677 20 19.1467C20 18.9257 19.9122 18.7137 19.7559 18.5574C19.5996 18.4011 19.3877 18.3133 19.1667 18.3133Z" fill="#0B0B07"/>
</g>
<defs>
<clipPath id="clip0_1432_2638">
<rect width="20" height="20" fill="white"/>
</clipPath>
</defs>
</svg>
