<svg width="20" height="20" viewBox="0 0 20 20" fill="none" xmlns="http://www.w3.org/2000/svg">
<path d="M10 0C4.48598 0 0 4.48598 0 10C0 15.514 4.48598 20 10 20C15.514 20 20 15.514 20 10C20 4.48598 15.514 0 10 0ZM10 18.8281C5.13215 18.8281 1.17188 14.8679 1.17188 10C1.17188 7.77648 1.99852 5.74262 3.36016 4.18875L15.8112 16.6399C14.2573 18.0015 12.2235 18.8281 10 18.8281ZM16.6398 15.8113L4.18879 3.36012C5.74266 1.99848 7.77652 1.17188 10 1.17188C14.8679 1.17188 18.8281 5.13215 18.8281 10C18.8281 12.2235 18.0015 14.2574 16.6398 15.8113Z" fill="#0B0B07"/>
<path d="M10.9221 12.536C10.95 12.3365 10.8907 12.1348 10.7595 11.9827C10.6283 11.8306 10.438 11.7432 10.2379 11.743H10.1173L8.89346 10.5115C7.82795 9.43972 6.10091 9.43972 5.0354 10.5115L3.81151 11.743H3.691C3.49085 11.7432 3.30056 11.8306 3.16938 11.9827C3.0382 12.1348 2.97886 12.3365 3.00675 12.536C3.28816 14.5192 4.97342 15.9942 6.96443 16C7.65751 15.9991 8.33821 15.8155 8.93879 15.4674C8.96048 15.4987 8.98458 15.5282 9.01098 15.5556C9.14296 15.6891 9.32257 15.7641 9.50976 15.7635H15.9363C16.2215 15.7635 16.4787 15.5906 16.5879 15.3256C16.697 15.0605 16.6368 14.7552 16.4351 14.5523L16.39 14.507L16.5621 13.7714C17.0529 11.6583 17.0787 9.46271 16.6375 7.33858L16.4107 6.25445C16.5091 6.21704 16.6081 6.18089 16.7059 6.14048C16.9463 6.04001 17.0622 5.76413 16.9664 5.52058L16.7334 4.93452C16.609 4.61811 16.3049 4.41059 15.9666 4.4114H15.7403L14.7532 3.66644C13.6154 2.80589 12.0575 2.7761 10.888 3.59242L9.71279 4.4114H9.65127C9.36102 4.41221 9.09223 4.56534 8.94235 4.81535L8.55615 5.46307C8.48419 5.58398 8.4687 5.73052 8.51403 5.8639C8.55936 5.99728 8.66071 6.10364 8.7912 6.15491L8.95084 6.21704C8.97976 6.22847 9.00891 6.23794 9.03772 6.2488L8.80979 7.33834C8.62123 8.24105 8.51667 9.15946 8.49762 10.0818L8.96771 10.0917C8.9855 9.19895 9.08592 8.30976 9.26783 7.43581L9.48291 6.40816C10.5315 6.75598 11.6284 6.9337 12.7325 6.93463C13.8299 6.93313 14.9201 6.75691 15.9627 6.41243L16.1768 7.43581C16.6039 9.49204 16.5789 11.6176 16.1037 13.6632L15.9016 14.5268C15.883 14.6065 15.9067 14.6903 15.9643 14.7482L16.1021 14.8868C16.1692 14.9543 16.1893 15.056 16.1531 15.1443C16.1169 15.2325 16.0314 15.2903 15.9363 15.2905H9.50976C9.44733 15.2905 9.38742 15.2656 9.34335 15.2212C9.33979 15.2176 9.33864 15.2127 9.33531 15.2091C10.2003 14.5693 10.7724 13.6056 10.9221 12.536ZM11.1549 3.98147C12.1577 3.2819 13.4931 3.3073 14.469 4.04452L14.956 4.4114H10.5372L11.1549 3.98147ZM9.11978 5.77625L8.95784 5.7065L9.34404 5.05866C9.40865 4.95092 9.52445 4.88487 9.64955 4.88441H15.9666C16.1126 4.88394 16.2439 4.97344 16.2976 5.11005L16.528 5.70269C14.1605 6.68843 11.506 6.71476 9.11978 5.77625ZM5.36777 10.8459C6.25022 9.96019 7.67863 9.96019 8.56109 10.8459L9.45261 11.743H5.7892V11.5065H5.31911V11.743H4.47625L5.36777 10.8459ZM6.96443 15.527C5.20767 15.522 3.72073 14.2207 3.47237 12.4709C3.46284 12.4064 3.48224 12.3409 3.52528 12.2921C3.56659 12.2435 3.62731 12.2155 3.691 12.216H10.2379C10.3012 12.2159 10.3613 12.2437 10.4024 12.2921C10.4455 12.3409 10.4648 12.4064 10.4553 12.4709C10.207 14.2203 8.72073 15.5215 6.96443 15.527Z" fill="#0B0B07"/>
<path d="M6 13H5V13.2222C5.00122 14.2036 5.896 14.9989 7 15H8V14.7778C7.99878 13.7963 7.104 13.0011 6 13ZM7 14.5556C6.26831 14.5547 5.64368 14.0855 5.52075 13.4444H6C6.73169 13.4452 7.35632 13.9144 7.47925 14.5556H7Z" fill="#0B0B07"/>
<path d="M11 11.6923C11.0011 12.4946 11.7312 13.1746 12.7143 13.2892V14H13.2857V13.2892C14.2688 13.1746 14.9989 12.4946 15 11.6923C15 11.5649 14.8721 11.4615 14.7143 11.4615C14.6881 11.4615 14.6622 11.4638 14.636 11.4647C14.8729 11.1938 15 10.8702 15 10.5385C15 10.411 14.8721 10.3077 14.7143 10.3077C14.6881 10.3077 14.6622 10.3099 14.636 10.3108C14.8729 10.04 15 9.71635 15 9.38461C15 9.25717 14.8721 9.15385 14.7143 9.15385C14.3881 9.15362 14.067 9.21841 13.7792 9.34236C13.8285 8.86955 13.6173 8.40317 13.202 8.06761C13.0904 7.97746 12.9096 7.97746 12.798 8.06761C12.3827 8.40317 12.1715 8.86955 12.2208 9.34236C11.933 9.21841 11.6119 9.15362 11.2857 9.15385C11.1279 9.15385 11 9.25717 11 9.38461C11 9.71635 11.1271 10.04 11.364 10.3108C11.3378 10.3108 11.3119 10.3077 11.2857 10.3077C11.1279 10.3077 11 10.411 11 10.5385C11 10.8702 11.1271 11.1938 11.364 11.4647C11.3378 11.4647 11.3119 11.4615 11.2857 11.4615C11.1279 11.4615 11 11.5649 11 11.6923ZM11.608 11.9526C12.139 12.0529 12.5536 12.3878 12.6777 12.8166C12.1468 12.7163 11.7321 12.3815 11.608 11.9526ZM12.6777 11.6628C12.1468 11.5625 11.7321 11.2276 11.608 10.7988C12.139 10.899 12.5536 11.2339 12.6777 11.6628ZM14.392 10.7988C14.2679 11.2276 13.8532 11.5625 13.3223 11.6628C13.4464 11.2339 13.861 10.899 14.392 10.7988ZM13.3223 12.8166C13.4464 12.3878 13.861 12.0529 14.392 11.9526C14.2679 12.3815 13.8532 12.7163 13.3223 12.8166ZM13.3223 10.5089C13.4464 10.0801 13.861 9.74519 14.392 9.64491C14.2679 10.0738 13.8532 10.4087 13.3223 10.5089ZM13 8.60002C13.2877 8.97401 13.2877 9.4476 13 9.8217C12.7123 9.4476 12.7123 8.97401 13 8.60002ZM12.6777 10.5098C12.1468 10.4096 11.7321 10.0747 11.608 9.64581C12.1387 9.74598 12.5532 10.0813 12.6777 10.5098Z" fill="#0B0B07"/>
</svg>
