<svg width="20" height="20" viewBox="0 0 20 20" fill="none" xmlns="http://www.w3.org/2000/svg">
<g clip-path="url(#clip0_1432_2439)">
<path d="M17.5097 0H13.3593C12.9009 0 12.5293 0.372266 12.5293 0.831445C12.5293 1.29062 12.9009 1.66289 13.3593 1.66289H17.1661L11.495 7.3434C8.42574 4.9184 3.975 5.44477 1.55402 8.51906C-0.866956 11.5934 -0.341487 16.0514 2.72773 18.4764C5.79695 20.9014 10.2477 20.375 12.6687 17.3007C14.6964 14.7259 14.6964 11.094 12.6687 8.5191L18.3398 2.83859V6.65164C18.3398 7.11086 18.7115 7.48309 19.1699 7.48309C19.6284 7.48309 20 7.11082 20 6.65164V2.49437C20 1.11676 18.8851 0 17.5097 0ZM7.13367 18.292C4.15379 18.292 1.73812 15.8723 1.73812 12.8875C1.73812 9.90273 4.15379 7.48309 7.13367 7.48309C10.1136 7.48309 12.5292 9.90273 12.5292 12.8875C12.5256 15.8708 10.112 18.2883 7.13367 18.292Z" fill="#0B0B07"/>
</g>
<defs>
<clipPath id="clip0_1432_2439">
<rect width="20" height="20" fill="white"/>
</clipPath>
</defs>
</svg>
