<svg width="18" height="20" viewBox="0 0 18 20" fill="none" xmlns="http://www.w3.org/2000/svg">
<path d="M17.6955 15.6135C17.8753 15.0415 17.5573 14.4322 16.9854 14.2525C14.4327 13.4503 13.3487 8.87887 13.0945 7.19306C13.0573 6.95434 12.9341 6.72278 12.9341 6.72278C12.4653 5.83079 10.6908 5.41457 10.4911 5.39051C10.1324 5.34736 10.0868 5.07303 10.0718 4.97976C10.6984 4.54393 11.1215 3.49165 11.1215 2.54129C11.1214 1.1378 10.9733 0 9.06115 0C9.03547 0 8.9373 0 8.91163 0C6.99942 0 6.85133 1.1378 6.85133 2.54129C6.85133 3.49165 7.27446 4.54393 7.90103 4.97976C7.88593 5.07303 7.8264 5.352 7.48164 5.39051C7.26672 5.41463 5.2297 5.89536 4.95583 6.93331C4.95583 6.93331 4.92216 7.08173 4.90178 7.19725C4.89907 7.2128 4.68802 8.78057 4.05649 10.4835C3.51777 11.9361 2.5527 13.7691 1.01422 14.2525C0.442282 14.4322 0.124419 15.0416 0.30412 15.6135C0.448603 16.0732 0.870571 16.3683 1.3275 16.3733C0.412612 16.8995 0.278707 17.6331 0.278707 18.0132C0.278707 18.1643 0.356818 18.6555 0.713768 19.1081C1.03421 19.515 1.6731 20 2.89598 20C3.07948 20 3.2735 19.989 3.47281 19.9676C4.28624 19.8802 5.1065 19.7488 5.89955 19.6218C6.18742 19.5756 6.47503 19.5297 6.76309 19.4855C7.14668 19.4266 7.83833 19.3876 8.81836 19.3696H9.15435C10.1344 19.3876 10.826 19.4266 11.2096 19.4855C11.4977 19.5297 11.7853 19.5756 12.0732 19.6218C12.8662 19.7488 13.6865 19.8802 14.4999 19.9676C14.6993 19.989 14.8933 20 15.0767 20C16.2996 20 16.9385 19.5149 17.2589 19.1081C17.6159 18.6555 17.694 18.1643 17.694 18.0132C17.694 17.633 17.5601 16.8994 16.645 16.3732C16.6501 16.3733 16.6552 16.3738 16.6602 16.3738C17.1217 16.3738 17.5498 16.077 17.6955 15.6135ZM5.01356 15.4761C4.46297 15.6474 4.33655 15.6654 3.86556 15.7323C3.71231 15.7539 3.5239 15.7807 3.27434 15.8192C3.02995 15.8452 2.80587 15.8801 2.59934 15.922C4.01495 15.1399 5.15669 13.6488 6.00288 11.4721C6.05009 11.8962 6.07931 12.3633 6.07931 12.8769C6.07931 14.5525 5.2306 15.4085 5.01356 15.4761ZM14.6984 15.8192C14.4488 15.7807 14.2607 15.7511 14.1072 15.7323C12.6239 15.5496 11.8934 14.5525 11.8934 12.8769C11.8934 12.3414 11.925 11.8559 11.9758 11.4176C12.8272 13.6318 13.9812 15.1445 15.4159 15.9308C15.1977 15.8849 14.9596 15.847 14.6984 15.8192Z" fill="#0B0B07"/>
</svg>
