<svg width="20" height="20" viewBox="0 0 20 20" fill="none" xmlns="http://www.w3.org/2000/svg">
<path d="M10 0C4.47329 0 0 4.47255 0 10C0 15.5267 4.47255 20 10 20C15.5266 20 20 15.5275 20 10C20 4.47337 15.5275 0 10 0ZM1.17647 10C1.17647 5.13471 5.13471 1.17647 10 1.17647C12.2215 1.17647 14.2535 2.00196 15.8063 3.36188L13.9351 5.2331C12.3258 3.5151 10.6074 3.87337 9.21584 5.67976C8.17302 4.85396 6.79922 4.13757 5.56365 4.59784C4.39929 5.03173 3.62761 6.45651 3.39078 8.60969C3.2062 10.2876 3.38051 12.2155 3.82455 13.407C3.99569 13.8662 4.23176 14.2825 4.51788 14.6504L3.36188 15.8063C2.00196 14.2535 1.17647 12.2214 1.17647 10ZM8.23702 11.6521C8.30196 9.41255 10.07 5.29412 11.7647 5.29412C13.5303 5.29412 15.2941 9.63902 15.2941 11.7647C15.2941 13.7108 13.7108 15.2941 11.7647 15.2941C9.75533 15.2941 8.17922 13.6249 8.23702 11.6521ZM4.9269 12.9962C4.54726 11.9774 4.39647 10.2265 4.56016 8.73827C4.74051 7.09875 5.26922 5.96302 5.97435 5.70024C6.78322 5.3989 7.90094 6.12502 8.56796 6.66792C7.71953 8.17126 6.85224 10.7116 7.10969 12.4556C7.26867 13.5318 7.79906 14.5309 8.6262 15.2715C7.05549 15.4468 5.50318 14.5426 4.9269 12.9962ZM10 18.8235C7.77859 18.8235 5.74655 17.998 4.19373 16.6381L5.35125 15.4806C6.64698 16.4821 8.40596 16.7704 9.998 16.126C10.5438 16.348 11.1402 16.4706 11.7647 16.4706C14.3595 16.4706 16.4706 14.3595 16.4706 11.7647C16.4706 10.2933 15.77 7.87545 14.6607 6.17118L16.6382 4.19377C17.998 5.74655 18.8235 7.77859 18.8235 10C18.8235 14.8653 14.8653 18.8235 10 18.8235Z" fill="#0B0B07"/>
</svg>
