<svg width="20" height="20" viewBox="0 0 20 20" fill="none" xmlns="http://www.w3.org/2000/svg">
<g clip-path="url(#clip0_1432_2445)">
<path d="M15.6629 0H10.3945C9.94674 0 9.58385 0.362891 9.58385 0.810653C9.58385 1.25812 9.94703 1.62131 10.3942 1.62101H13.7059L10.5953 4.73164C8.83933 3.51741 6.40708 3.69008 4.84489 5.25227C3.08692 7.01024 3.08692 9.87036 4.84489 11.6283C5.51771 12.3011 6.35236 12.7141 7.22447 12.8721V16.115H5.40621C4.95874 16.115 4.59555 16.4779 4.59555 16.9257C4.59555 17.3731 4.95844 17.7363 5.40621 17.7363H7.22447V19.1899C7.22447 19.6374 7.58736 20.0006 8.03512 20.0006C8.48288 20.0006 8.84577 19.6377 8.84577 19.1899V17.7363H10.664C11.1115 17.7363 11.4747 17.3734 11.4747 16.9257C11.4747 16.4782 11.1118 16.115 10.664 16.115H8.84577V12.8712C9.71642 12.7129 10.5493 12.3 11.2212 11.6283C12.7834 10.0661 12.9561 7.63418 11.7419 5.87796L14.8522 2.76734V6.07902C14.8522 6.3026 14.9429 6.50541 15.0896 6.65203C15.2362 6.79865 15.439 6.88938 15.6626 6.88938C16.1103 6.88938 16.4732 6.52649 16.4732 6.07872V0.81036C16.4735 0.363184 16.1103 0 15.6629 0ZM10.0749 10.482C8.94908 11.6078 7.11736 11.6078 5.99151 10.482C4.86567 9.35616 4.86567 7.52444 5.99151 6.3986C7.11736 5.27275 8.94908 5.27275 10.0749 6.3986C11.2008 7.52444 11.2008 9.35616 10.0749 10.482Z" fill="black"/>
</g>
<defs>
<clipPath id="clip0_1432_2445">
<rect width="20" height="20" fill="white"/>
</clipPath>
</defs>
</svg>
