<svg width="22" height="20" viewBox="0 0 22 20" fill="none" xmlns="http://www.w3.org/2000/svg">
<path d="M11.5334 4.411C11.3275 3.95306 11.3275 3.14962 11.5337 2.69093L11.5377 2.68209C11.8814 1.91758 11.8814 0.764506 11.5377 0L10.4671 0.481382C10.673 0.939327 10.673 1.74276 10.4668 2.20145L10.4629 2.2103C10.1191 2.9748 10.1191 4.12788 10.4629 4.89239L11.5334 4.411Z" fill="#0B0B07"/>
<path d="M8.79521 4.41128C8.65263 4.09419 8.65263 3.51659 8.79556 3.19872L8.7985 3.19211C9.0772 2.57226 9.0772 1.63743 8.7985 1.01758L7.72794 1.49896C7.87052 1.81605 7.87052 2.39364 7.72759 2.71151L7.72465 2.71809C7.44595 3.33794 7.44595 4.27277 7.72465 4.89262L8.79521 4.41128Z" fill="#0B0B07"/>
<path d="M14.2728 4.41128C14.1302 4.09419 14.1302 3.51659 14.2731 3.19872L14.276 3.19211C14.5547 2.57226 14.5547 1.63743 14.276 1.01758L13.2055 1.49896C13.3481 1.81605 13.3481 2.39364 13.2051 2.71151L13.2022 2.71809C12.9235 3.33794 12.9235 4.27277 13.2022 4.89262L14.2728 4.41128Z" fill="#0B0B07"/>
<path d="M9.49032 9.01463L3.98915 3.51346C3.30262 2.82689 2.18558 2.82689 1.49909 3.51346C1.16655 3.846 0.983398 4.28814 0.983398 4.75849C0.983398 5.2288 1.16655 5.67093 1.49909 6.00347L4.51025 9.01463H0.983398V14.718C0.983398 16.1352 1.99319 17.3209 3.33103 17.5935V20.0002H18.6689V17.5935C20.0067 17.3209 21.0165 16.1352 21.0165 14.718V9.01463H9.49032ZM2.32914 5.17347C2.21829 5.06262 2.15721 4.91523 2.15721 4.75849C2.15721 4.60174 2.21825 4.45435 2.3291 4.3435C2.55796 4.11469 2.93029 4.11469 3.15914 4.3435L7.83031 9.01463H6.17026L2.32914 5.17347ZM19.8427 10.1884V11.3623H2.15721V10.1884H19.8427ZM4.50485 18.8264V17.6526H17.4951V18.8264H4.50485ZM18.082 16.4788H3.91794C2.94707 16.4788 2.15721 15.6889 2.15721 14.718V12.5361H19.8427V14.718C19.8427 15.6889 19.0528 16.4788 18.082 16.4788Z" fill="#0B0B07"/>
</svg>
