<svg width="22" height="21" viewBox="0 0 22 21" fill="none" xmlns="http://www.w3.org/2000/svg">
<path d="M18.7517 12.6536C18.4511 11.4695 17.6185 10.4269 16.5637 9.79546C16.814 9.20695 17.0888 8.40289 17.1783 7.69906L18.1978 6.6796C18.5757 6.30173 19.078 6.09363 19.6125 6.09363C20.3379 6.09363 20.961 5.67725 21.2386 5.00705C21.5162 4.33684 21.37 3.60184 20.8571 3.08891C20.5482 2.78006 20.1522 2.61019 19.7474 2.57935C19.7166 2.17461 19.5468 1.77857 19.2379 1.46971C18.7249 0.956746 17.9899 0.810542 17.3197 1.08819C16.6495 1.36579 16.2331 1.98887 16.2331 2.71432C16.2331 3.24869 16.025 3.75112 15.6471 4.129L14.6276 5.14849C13.9548 5.23568 13.2517 5.46633 12.6432 5.71641C12.1037 5.93812 11.5506 6.2113 11.0336 6.50498C10.2394 6.25587 9.41583 6.12936 8.58113 6.12936C4.05871 6.12927 0.379395 9.80859 0.379395 14.3311C0.379395 16.6182 2.24003 18.4788 4.52705 18.4788H13.1508C13.8454 19.9383 15.3345 20.9497 17.0555 20.9497C19.4384 20.9497 21.3771 19.0111 21.3771 16.6282C21.3771 14.847 20.2939 13.3143 18.7517 12.6536ZM17.313 12.3145C16.3757 12.2451 15.3019 12.5597 14.5673 13.0968C15.0405 12.5763 15.5711 11.7787 16.0283 10.9172C16.5673 11.2493 17.047 11.7696 17.313 12.3145ZM16.5171 4.99893C17.1274 4.38868 17.4635 3.57732 17.4635 2.71428C17.4635 2.38578 17.7138 2.25655 17.7905 2.22481C17.8672 2.19303 18.1356 2.1074 18.3679 2.33968C18.5744 2.54626 18.5744 2.88234 18.3679 3.08891L19.2378 3.95888C19.4444 3.75231 19.7805 3.75231 19.9871 3.95888C20.2193 4.19113 20.1337 4.45951 20.1019 4.53624C20.0701 4.61293 19.9409 4.86326 19.6124 4.86326C18.7494 4.8633 17.938 5.19939 17.3278 5.80959L17.012 6.12534C16.93 5.94948 16.821 5.78839 16.6797 5.64702C16.5383 5.50566 16.3772 5.39669 16.2014 5.31467L16.5171 4.99893ZM13.1109 6.85435C14.6992 6.20158 15.5574 6.26465 15.8098 6.51699C16.0621 6.76933 16.1252 7.62757 15.4724 9.21589C14.9088 10.5873 14.061 11.8709 13.5495 12.3824C12.5555 13.3764 10.9383 13.3764 9.94433 12.3824C8.95039 11.3885 8.95043 9.77127 9.94433 8.77732C10.4559 8.26579 11.7395 7.41797 13.1109 6.85435ZM4.52705 17.2484C2.91843 17.2484 1.60973 15.9397 1.60973 14.3311C1.60973 10.487 4.73711 7.35965 8.58121 7.35965C8.92906 7.35965 9.27466 7.38544 9.61616 7.43671C9.40844 7.59817 9.22508 7.75668 9.07437 7.90739C7.60071 9.38104 7.60071 11.7788 9.07437 13.2525C10.3804 14.5586 12.412 14.7061 13.8832 13.697C13.1704 14.4679 12.734 15.4979 12.734 16.6282C12.734 16.8388 12.7495 17.0458 12.7787 17.2485H4.52705V17.2484ZM17.0555 19.7193C15.351 19.7193 13.9643 18.3326 13.9643 16.6281C13.9643 14.9236 15.351 13.5369 17.0555 13.5369C18.76 13.5369 20.1468 14.9237 20.1468 16.6281C20.1468 18.3326 18.76 19.7193 17.0555 19.7193Z" fill="#0B0B07"/>
</svg>
