<svg width="20" height="20" viewBox="0 0 20 20" fill="none" xmlns="http://www.w3.org/2000/svg">
<g clip-path="url(#clip0_1432_2652)">
<path d="M5.83327 4.58333C5.83327 3.89333 6.39327 3.33333 7.08327 3.33333C7.77327 3.33333 8.33327 3.89333 8.33327 4.58333C8.33327 5.27333 7.77327 5.83333 7.08327 5.83333C6.39327 5.83333 5.83327 5.27333 5.83327 4.58333ZM19.9999 10.0442V15.1875C19.9999 16.4225 19.3266 17.5483 18.2449 18.1258C16.6374 18.9808 13.9033 20.0008 9.99994 20.0008C5.56577 20.0008 2.62494 17.8242 1.2666 16.5267C0.454936 15.7525 -0.00923055 14.6617 -0.00756389 13.5333C-0.00589722 12.2533 0.253269 8.91083 2.5666 5.3325C2.52577 5.08833 2.49994 4.83917 2.49994 4.58333C2.49994 2.05583 4.55577 0 7.08327 0C9.61077 0 11.6666 2.05583 11.6666 4.58333C11.6666 6.96833 9.83577 8.93083 7.50577 9.145C7.47577 9.685 7.4141 10.1925 7.31827 10.67C8.14744 10.3242 9.2066 10.0267 10.4166 10C10.9741 10 11.5558 10.1033 11.9966 10.2517C12.3616 9.79333 14.3041 7.5 16.6666 7.5C17.0641 7.5 17.4458 7.52 17.8016 7.56C19.0549 7.70083 19.9999 8.76833 19.9999 10.0433V10.0442ZM4.1666 4.58333C4.1666 6.19167 5.47494 7.5 7.08327 7.5C8.6916 7.5 9.99994 6.19167 9.99994 4.58333C9.99994 2.975 8.6916 1.66667 7.08327 1.66667C5.47494 1.66667 4.1666 2.975 4.1666 4.58333ZM18.3333 10.0442C18.3333 9.61833 18.0249 9.2625 17.6166 9.21667C17.3216 9.18333 17.0024 9.16667 16.6666 9.16667C15.4124 9.16667 14.1108 10.3542 13.4924 11.0592C14.0891 11.5325 14.4149 11.9958 14.4416 12.0358C14.6983 12.4175 14.5966 12.9358 14.2149 13.1917C14.0724 13.2875 13.9108 13.3333 13.7508 13.3333C13.4841 13.3333 13.2216 13.2058 13.0608 12.9683C13.0149 12.9033 12.0908 11.6425 10.4358 11.6667C8.05327 11.72 6.39077 13.1017 6.37327 13.115C6.3616 13.1242 6.14577 13.3033 5.74577 13.3033C5.38494 13.3033 4.91244 12.8925 5.0091 12.3933C5.03994 12.2975 5.0916 12.1 5.09244 12.0983C5.5491 11.2108 5.78577 10.2108 5.84827 8.9925C4.83577 8.70833 3.96577 8.08583 3.36577 7.25333C1.84827 10.0542 1.65994 12.525 1.6591 13.5358C1.6591 14.22 1.92744 14.8533 2.41744 15.3208C3.59577 16.4467 6.14827 18.3342 10.0008 18.3342C13.5599 18.3342 16.0233 17.4208 17.4616 16.655C17.9999 16.3683 18.3341 15.8058 18.3341 15.1875L18.3333 10.0442Z" fill="#0B0B07"/>
</g>
<defs>
<clipPath id="clip0_1432_2652">
<rect width="20" height="20" fill="white"/>
</clipPath>
</defs>
</svg>
