<svg width="18" height="18" viewBox="0 0 18 18" fill="none" xmlns="http://www.w3.org/2000/svg">
<path d="M12.9582 15.0416H2.12484C0.958171 15.0416 0.0415039 14.125 0.0415039 12.9583V2.12496C0.0415039 0.958293 0.958171 0.041626 2.12484 0.041626H12.9582C14.1248 0.041626 15.0415 0.958293 15.0415 2.12496V12.9583C15.0415 14.0416 14.0415 15.0416 12.9582 15.0416ZM2.12484 1.70829C1.87484 1.70829 1.70817 1.87496 1.70817 2.12496V12.9583C1.70817 13.2083 1.87484 13.375 2.12484 13.375H12.9582C13.2082 13.375 13.3748 13.2083 13.3748 12.9583V2.12496C13.3748 1.87496 13.2082 1.70829 12.9582 1.70829H2.12484Z" fill="#0B0B07"/>
<path d="M16.2917 17.9583H4.20833C3.70833 17.9583 3.375 17.625 3.375 17.125C3.375 16.625 3.70833 16.2917 4.20833 16.2917H16.2917V4.20833C16.2917 3.70833 16.625 3.375 17.125 3.375C17.625 3.375 17.9583 3.70833 17.9583 4.20833V16.2917C17.9583 17.2083 17.2083 17.9583 16.2917 17.9583Z" fill="#0B0B07"/>
<path d="M6.70815 10.4583C6.54148 10.4583 6.29148 10.3749 6.12482 10.2083L3.62482 7.87492C3.29148 7.54159 3.29148 7.04159 3.54148 6.70825C3.87482 6.37492 4.37482 6.37492 4.70815 6.62492L6.62482 8.37492L10.2082 4.70825C10.5415 4.37492 11.0415 4.37492 11.3748 4.70825C11.7082 5.04159 11.7082 5.54159 11.3748 5.87492L7.20815 10.1249C7.12482 10.3749 6.87482 10.4583 6.70815 10.4583Z" fill="#0B0B07"/>
</svg>
