<svg width="26" height="16" viewBox="0 0 26 16" fill="none" xmlns="http://www.w3.org/2000/svg">
<path d="M12.7093 12.8909C14.3044 12.8909 15.5946 12.8858 16.8848 12.8909C17.2505 12.8909 17.6163 12.9215 17.982 12.9469C18.617 12.9928 19.1097 13.2627 19.0843 14.0469C19.0589 14.8159 18.5408 15.0756 17.9211 15.1061C16.7883 15.1571 15.6505 15.1723 14.5177 15.2131C13.451 15.2538 12.3842 15.32 11.3175 15.3506C10.4641 15.371 9.96634 14.9432 10.0781 13.9654C10.2559 12.3562 10.4692 10.7521 10.6673 9.14286C10.6978 8.90351 10.713 8.66417 10.7435 8.3739C9.52441 8.3077 8.36625 8.20075 7.21317 8.22112C6.99475 8.22622 6.71537 8.68963 6.5833 9.00537C5.80611 10.8437 5.07972 12.6923 4.3127 14.5307C4.05363 15.152 3.67774 15.758 2.94627 15.3862C2.19956 15.0094 2.44847 14.3219 2.70753 13.7057C3.79457 11.1697 4.46 8.50121 4.80034 5.72581C5.04416 3.74994 6.0093 3.03699 7.82781 3.7041C9.98158 4.49853 12.1861 5.15546 14.3958 4.56473C16.9102 3.89252 19.3332 2.84348 21.7816 1.90646C22.6248 1.58054 23.4274 1.11204 24.2401 0.699546C24.9056 0.363442 25.505 0.409275 25.8605 1.16805C26.2009 1.89118 25.8859 2.46663 25.2662 2.762C21.9492 4.35085 18.6068 5.89387 15.3 7.50309C14.8377 7.72715 14.345 8.17529 14.1418 8.65398C13.6288 9.89655 13.2681 11.2104 12.7093 12.8909Z" fill="#0B0B07"/>
<path d="M7.7465e-05 3.81614C-0.0100818 2.53283 0.980449 1.43286 2.13353 1.45832C3.32216 1.48379 4.2873 2.53283 4.30254 3.81614C4.31777 5.09944 3.34248 6.16377 2.15385 6.15867C0.944891 6.15358 0.0102368 5.14018 7.7465e-05 3.81614Z" fill="#0B0B07"/>
</svg>
