<svg width="20" height="20" viewBox="0 0 20 20" fill="none" xmlns="http://www.w3.org/2000/svg">
<path d="M17.3184 9.58578C17.3184 9.58578 17.3184 9.58578 15.9777 8.24515C14.1821 6.44949 11.5547 5.9807 9.32422 6.83804L15.0233 12.5371C15.3605 12.3127 15.6805 12.0521 15.9777 11.755L17.3183 10.4143C17.5471 10.1855 17.5471 9.8146 17.3184 9.58578Z" fill="#0B0B07"/>
<path d="M3.1377 7.48978V12.5106C3.1377 12.7476 3.28047 12.9612 3.49941 13.0519C3.57191 13.082 3.64805 13.0965 3.72352 13.0965C3.87602 13.0965 4.0259 13.037 4.13797 12.9249L6.23395 10.8289L7.1602 11.7552C8.24938 12.8444 9.64469 13.4452 11.0718 13.5582L6.45957 8.94599L6.23402 9.17154L4.13797 7.07549C3.97039 6.90787 3.71836 6.85771 3.49941 6.94845C3.28047 7.03916 3.1377 7.25279 3.1377 7.48978Z" fill="#0B0B07"/>
<path d="M10 0C4.48598 0 0 4.48598 0 10C0 15.514 4.48598 20 10 20C15.514 20 20 15.514 20 10C20 4.48598 15.514 0 10 0ZM10 18.8281C5.13215 18.8281 1.17188 14.8679 1.17188 10C1.17188 7.77648 1.99852 5.74262 3.36016 4.18875L15.8112 16.6399C14.2573 18.0015 12.2235 18.8281 10 18.8281ZM16.6398 15.8113L4.18879 3.36012C5.74266 1.99848 7.77652 1.17188 10 1.17188C14.8679 1.17188 18.8281 5.13215 18.8281 10C18.8281 12.2235 18.0015 14.2574 16.6398 15.8113Z" fill="#0B0B07"/>
</svg>
